<svg xmlns="http://www.w3.org/2000/svg" width="1440" height="900" viewBox="0 0 1440 900">
<rect width="100%" height="100%" fill="#ffffff"/>
<rect x="0" y="0" width="1440" height="72" fill="#f2f2f2" stroke="#444"/>
<text x="40" y="45" font-family="Arial" font-size="28" fill="#111">Panel klienta — dashboard</text>
<rect x="1180" y="16" width="100" height="40" fill="none" stroke="#444"/>
<text x="1210" y="42" font-family="Arial" font-size="18" fill="#111">Profil</text>
<rect x="1295" y="16" width="100" height="40" fill="none" stroke="#444"/>
<text x="1320" y="42" font-family="Arial" font-size="18" fill="#111">Logout</text>
<rect x="0" y="72" width="250" height="768" fill="#fafafa" stroke="#444"/>
<text x="30" y="110" font-family="Arial" font-size="22" fill="#111">Nawigacja</text>
<rect x="24" y="126" width="200" height="42" fill="none" stroke="#777"/>
<text x="40" y="150" font-family="Arial" font-size="18" fill="#111">Dashboard</text>
<rect x="24" y="184" width="200" height="42" fill="none" stroke="#777"/>
<text x="40" y="208" font-family="Arial" font-size="18" fill="#111">Przesyłki</text>
<rect x="24" y="242" width="200" height="42" fill="none" stroke="#777"/>
<text x="40" y="266" font-family="Arial" font-size="18" fill="#111">Nowa przesyłka</text>
<rect x="24" y="300" width="200" height="42" fill="none" stroke="#777"/>
<text x="40" y="324" font-family="Arial" font-size="18" fill="#111">Płatności</text>
<rect x="24" y="358" width="200" height="42" fill="none" stroke="#777"/>
<text x="40" y="382" font-family="Arial" font-size="18" fill="#111">Reklamacje</text>
<rect x="24" y="416" width="200" height="42" fill="none" stroke="#777"/>
<text x="40" y="440" font-family="Arial" font-size="18" fill="#111">Profil</text>
<rect x="280" y="110" width="350" height="140" fill="none" stroke="#444"/>
<text x="298" y="144" font-family="Arial" font-size="22" fill="#111">KPI 1</text>
<text x="300" y="178" font-family="Arial" font-size="16" fill="#333">• Aktywne przesyłki</text>
<text x="300" y="206" font-family="Arial" font-size="16" fill="#333">• Liczba: 5</text>
<rect x="655" y="110" width="350" height="140" fill="none" stroke="#444"/>
<text x="673" y="144" font-family="Arial" font-size="22" fill="#111">KPI 2</text>
<text x="675" y="178" font-family="Arial" font-size="16" fill="#333">• Oczekujące płatności</text>
<text x="675" y="206" font-family="Arial" font-size="16" fill="#333">• Liczba: 2</text>
<rect x="1030" y="110" width="350" height="140" fill="none" stroke="#444"/>
<text x="1048" y="144" font-family="Arial" font-size="22" fill="#111">KPI 3</text>
<text x="1050" y="178" font-family="Arial" font-size="16" fill="#333">• Powiadomienia</text>
<text x="1050" y="206" font-family="Arial" font-size="16" fill="#333">• Liczba: 3</text>
<rect x="280" y="280" width="550" height="240" fill="none" stroke="#444"/>
<text x="298" y="314" font-family="Arial" font-size="22" fill="#111">Ostatnie przesyłki</text>
<text x="300" y="348" font-family="Arial" font-size="16" fill="#333">• Lista 3–5 ostatnich przesyłek</text>
<text x="300" y="376" font-family="Arial" font-size="16" fill="#333">• Status</text>
<text x="300" y="404" font-family="Arial" font-size="16" fill="#333">• Akcja „Szczegóły”</text>
<rect x="855" y="280" width="525" height="240" fill="none" stroke="#444"/>
<text x="873" y="314" font-family="Arial" font-size="22" fill="#111">Szybkie akcje</text>
<text x="875" y="348" font-family="Arial" font-size="16" fill="#333">• Utwórz przesyłkę</text>
<text x="875" y="376" font-family="Arial" font-size="16" fill="#333">• Opłać przesyłkę</text>
<text x="875" y="404" font-family="Arial" font-size="16" fill="#333">• Śledź przesyłkę</text>
<text x="875" y="432" font-family="Arial" font-size="16" fill="#333">• Złóż reklamację</text>
<rect x="280" y="550" width="1100" height="230" fill="none" stroke="#444"/>
<text x="298" y="584" font-family="Arial" font-size="22" fill="#111">Powiadomienia / historia</text>
<text x="300" y="618" font-family="Arial" font-size="16" fill="#333">• Najnowsze zdarzenia</text>
<text x="300" y="646" font-family="Arial" font-size="16" fill="#333">• Zmiany statusu</text>
<text x="300" y="674" font-family="Arial" font-size="16" fill="#333">• Informacje systemowe</text>
<text x="40" y="880" font-family="Arial" font-size="16" fill="#666">Wireframe — uproszczony szkic ekranu</text>
</svg>