<svg xmlns="http://www.w3.org/2000/svg" width="1440" height="900" viewBox="0 0 1440 900">
<rect width="100%" height="100%" fill="#ffffff"/>
<rect x="0" y="0" width="1440" height="72" fill="#f2f2f2" stroke="#444"/>
<text x="40" y="45" font-family="Arial" font-size="28" fill="#111">Panel klienta — szczegóły przesyłki</text>
<rect x="1180" y="16" width="100" height="40" fill="none" stroke="#444"/>
<text x="1210" y="42" font-family="Arial" font-size="18" fill="#111">Profil</text>
<rect x="1295" y="16" width="100" height="40" fill="none" stroke="#444"/>
<text x="1320" y="42" font-family="Arial" font-size="18" fill="#111">Logout</text>
<rect x="0" y="72" width="250" height="768" fill="#fafafa" stroke="#444"/>
<text x="30" y="110" font-family="Arial" font-size="22" fill="#111">Nawigacja</text>
<rect x="24" y="126" width="200" height="42" fill="none" stroke="#777"/>
<text x="40" y="150" font-family="Arial" font-size="18" fill="#111">Dashboard</text>
<rect x="24" y="184" width="200" height="42" fill="none" stroke="#777"/>
<text x="40" y="208" font-family="Arial" font-size="18" fill="#111">Przesyłki</text>
<rect x="24" y="242" width="200" height="42" fill="none" stroke="#777"/>
<text x="40" y="266" font-family="Arial" font-size="18" fill="#111">Nowa przesyłka</text>
<rect x="24" y="300" width="200" height="42" fill="none" stroke="#777"/>
<text x="40" y="324" font-family="Arial" font-size="18" fill="#111">Płatności</text>
<rect x="24" y="358" width="200" height="42" fill="none" stroke="#777"/>
<text x="40" y="382" font-family="Arial" font-size="18" fill="#111">Reklamacje</text>
<rect x="24" y="416" width="200" height="42" fill="none" stroke="#777"/>
<text x="40" y="440" font-family="Arial" font-size="18" fill="#111">Profil</text>
<rect x="280" y="110" width="1100" height="100" fill="none" stroke="#444"/>
<text x="298" y="144" font-family="Arial" font-size="22" fill="#111">Nagłówek przesyłki</text>
<text x="300" y="178" font-family="Arial" font-size="16" fill="#333">• Numer przesyłki</text>
<text x="300" y="206" font-family="Arial" font-size="16" fill="#333">• Status</text>
<text x="300" y="234" font-family="Arial" font-size="16" fill="#333">• Przyciski: opłać / przekieruj / reklamacja</text>
<rect x="280" y="240" width="350" height="180" fill="none" stroke="#444"/>
<text x="298" y="274" font-family="Arial" font-size="22" fill="#111">Nadawca</text>
<text x="300" y="308" font-family="Arial" font-size="16" fill="#333">• Imię i nazwisko</text>
<text x="300" y="336" font-family="Arial" font-size="16" fill="#333">• Adres</text>
<text x="300" y="364" font-family="Arial" font-size="16" fill="#333">• Kontakt</text>
<rect x="655" y="240" width="350" height="180" fill="none" stroke="#444"/>
<text x="673" y="274" font-family="Arial" font-size="22" fill="#111">Odbiorca</text>
<text x="675" y="308" font-family="Arial" font-size="16" fill="#333">• Imię i nazwisko</text>
<text x="675" y="336" font-family="Arial" font-size="16" fill="#333">• Adres / punkt</text>
<text x="675" y="364" font-family="Arial" font-size="16" fill="#333">• Kontakt</text>
<rect x="1030" y="240" width="350" height="180" fill="none" stroke="#444"/>
<text x="1048" y="274" font-family="Arial" font-size="22" fill="#111">Płatność</text>
<text x="1050" y="308" font-family="Arial" font-size="16" fill="#333">• Kwota</text>
<text x="1050" y="336" font-family="Arial" font-size="16" fill="#333">• Status płatności</text>
<text x="1050" y="364" font-family="Arial" font-size="16" fill="#333">• Metoda płatności</text>
<rect x="280" y="450" width="1100" height="320" fill="none" stroke="#444"/>
<text x="298" y="484" font-family="Arial" font-size="22" fill="#111">Historia zdarzeń</text>
<text x="300" y="518" font-family="Arial" font-size="16" fill="#333">• Oś czasu</text>
<text x="300" y="546" font-family="Arial" font-size="16" fill="#333">• Statusy logistyczne</text>
<text x="300" y="574" font-family="Arial" font-size="16" fill="#333">• Komentarze systemowe</text>
<text x="40" y="880" font-family="Arial" font-size="16" fill="#666">Wireframe — uproszczony szkic ekranu</text>
</svg>