<svg xmlns="http://www.w3.org/2000/svg" width="1440" height="900" viewBox="0 0 1440 900">
<rect width="100%" height="100%" fill="#ffffff"/>
<rect x="0" y="0" width="1440" height="72" fill="#f2f2f2" stroke="#444"/>
<text x="40" y="45" font-family="Arial" font-size="28" fill="#111">Panel klienta — tworzenie przesyłki</text>
<rect x="1180" y="16" width="100" height="40" fill="none" stroke="#444"/>
<text x="1210" y="42" font-family="Arial" font-size="18" fill="#111">Profil</text>
<rect x="1295" y="16" width="100" height="40" fill="none" stroke="#444"/>
<text x="1320" y="42" font-family="Arial" font-size="18" fill="#111">Logout</text>
<rect x="0" y="72" width="250" height="768" fill="#fafafa" stroke="#444"/>
<text x="30" y="110" font-family="Arial" font-size="22" fill="#111">Nawigacja</text>
<rect x="24" y="126" width="200" height="42" fill="none" stroke="#777"/>
<text x="40" y="150" font-family="Arial" font-size="18" fill="#111">Dashboard</text>
<rect x="24" y="184" width="200" height="42" fill="none" stroke="#777"/>
<text x="40" y="208" font-family="Arial" font-size="18" fill="#111">Przesyłki</text>
<rect x="24" y="242" width="200" height="42" fill="none" stroke="#777"/>
<text x="40" y="266" font-family="Arial" font-size="18" fill="#111">Nowa przesyłka</text>
<rect x="24" y="300" width="200" height="42" fill="none" stroke="#777"/>
<text x="40" y="324" font-family="Arial" font-size="18" fill="#111">Płatności</text>
<rect x="24" y="358" width="200" height="42" fill="none" stroke="#777"/>
<text x="40" y="382" font-family="Arial" font-size="18" fill="#111">Reklamacje</text>
<rect x="24" y="416" width="200" height="42" fill="none" stroke="#777"/>
<text x="40" y="440" font-family="Arial" font-size="18" fill="#111">Profil</text>
<rect x="280" y="110" width="1100" height="70" fill="none" stroke="#444"/>
<text x="298" y="144" font-family="Arial" font-size="22" fill="#111">Kreator kroków</text>
<text x="300" y="178" font-family="Arial" font-size="16" fill="#333">• 1. Nadawca  2. Odbiorca  3. Paczka  4. Dostawa  5. Płatność</text>
<rect x="280" y="210" width="700" height="460" fill="none" stroke="#444"/>
<text x="298" y="244" font-family="Arial" font-size="22" fill="#111">Formularz główny</text>
<text x="300" y="278" font-family="Arial" font-size="16" fill="#333">• Pola tekstowe</text>
<text x="300" y="306" font-family="Arial" font-size="16" fill="#333">• Selecty</text>
<text x="300" y="334" font-family="Arial" font-size="16" fill="#333">• Walidacja</text>
<text x="300" y="362" font-family="Arial" font-size="16" fill="#333">• Przejście do kolejnego kroku</text>
<rect x="1010" y="210" width="370" height="460" fill="none" stroke="#444"/>
<text x="1028" y="244" font-family="Arial" font-size="22" fill="#111">Podsumowanie</text>
<text x="1030" y="278" font-family="Arial" font-size="16" fill="#333">• Koszt przesyłki</text>
<text x="1030" y="306" font-family="Arial" font-size="16" fill="#333">• Typ dostawy</text>
<text x="1030" y="334" font-family="Arial" font-size="16" fill="#333">• Usługi dodatkowe</text>
<text x="1030" y="362" font-family="Arial" font-size="16" fill="#333">• Przycisk „Dalej / Zapłać”</text>
<rect x="280" y="700" width="1100" height="80" fill="none" stroke="#444"/>
<text x="298" y="734" font-family="Arial" font-size="22" fill="#111">Akcje</text>
<text x="300" y="768" font-family="Arial" font-size="16" fill="#333">• Wstecz</text>
<text x="300" y="796" font-family="Arial" font-size="16" fill="#333">• Zapisz roboczo</text>
<text x="300" y="824" font-family="Arial" font-size="16" fill="#333">• Dalej</text>
<text x="40" y="880" font-family="Arial" font-size="16" fill="#666">Wireframe — uproszczony szkic ekranu</text>
</svg>