<svg xmlns="http://www.w3.org/2000/svg" width="1440" height="900" viewBox="0 0 1440 900">
<rect width="100%" height="100%" fill="#ffffff"/>
<rect x="0" y="0" width="1440" height="72" fill="#f2f2f2" stroke="#444"/>
<text x="40" y="45" font-family="Arial" font-size="28" fill="#111">Panel kuriera</text>
<rect x="1180" y="16" width="100" height="40" fill="none" stroke="#444"/>
<text x="1210" y="42" font-family="Arial" font-size="18" fill="#111">Profil</text>
<rect x="1295" y="16" width="100" height="40" fill="none" stroke="#444"/>
<text x="1320" y="42" font-family="Arial" font-size="18" fill="#111">Logout</text>
<rect x="0" y="72" width="250" height="768" fill="#fafafa" stroke="#444"/>
<text x="30" y="110" font-family="Arial" font-size="22" fill="#111">Nawigacja</text>
<rect x="24" y="126" width="200" height="42" fill="none" stroke="#777"/>
<text x="40" y="150" font-family="Arial" font-size="18" fill="#111">Dashboard</text>
<rect x="24" y="184" width="200" height="42" fill="none" stroke="#777"/>
<text x="40" y="208" font-family="Arial" font-size="18" fill="#111">Zadania</text>
<rect x="24" y="242" width="200" height="42" fill="none" stroke="#777"/>
<text x="40" y="266" font-family="Arial" font-size="18" fill="#111">Historia</text>
<rect x="24" y="300" width="200" height="42" fill="none" stroke="#777"/>
<text x="40" y="324" font-family="Arial" font-size="18" fill="#111">Awiza</text>
<rect x="280" y="110" width="350" height="140" fill="none" stroke="#444"/>
<text x="298" y="144" font-family="Arial" font-size="22" fill="#111">Dzisiejsze zadania</text>
<text x="300" y="178" font-family="Arial" font-size="16" fill="#333">• Liczba przesyłek</text>
<text x="300" y="206" font-family="Arial" font-size="16" fill="#333">• Priorytety</text>
<rect x="655" y="110" width="350" height="140" fill="none" stroke="#444"/>
<text x="673" y="144" font-family="Arial" font-size="22" fill="#111">Nieudane doręczenia</text>
<text x="675" y="178" font-family="Arial" font-size="16" fill="#333">• Liczba prób</text>
<text x="675" y="206" font-family="Arial" font-size="16" fill="#333">• Awiza</text>
<rect x="1030" y="110" width="350" height="140" fill="none" stroke="#444"/>
<text x="1048" y="144" font-family="Arial" font-size="22" fill="#111">Zwroty</text>
<text x="1050" y="178" font-family="Arial" font-size="16" fill="#333">• Liczba aktywnych zwrotów</text>
<rect x="280" y="280" width="1100" height="500" fill="none" stroke="#444"/>
<text x="298" y="314" font-family="Arial" font-size="22" fill="#111">Lista zadań / szczegóły</text>
<text x="300" y="348" font-family="Arial" font-size="16" fill="#333">• Numer przesyłki</text>
<text x="300" y="376" font-family="Arial" font-size="16" fill="#333">• Adres</text>
<text x="300" y="404" font-family="Arial" font-size="16" fill="#333">• Odbiorca</text>
<text x="300" y="432" font-family="Arial" font-size="16" fill="#333">• Akcje: doręczono / próba / awizo / zwrot</text>
<text x="40" y="880" font-family="Arial" font-size="16" fill="#666">Wireframe — uproszczony szkic ekranu</text>
</svg>