<svg xmlns="http://www.w3.org/2000/svg" width="1440" height="900" viewBox="0 0 1440 900">
<rect width="100%" height="100%" fill="#ffffff"/>
<rect x="0" y="0" width="1440" height="72" fill="#f2f2f2" stroke="#444"/>
<text x="40" y="45" font-family="Arial" font-size="28" fill="#111">Panel pracownika punktu</text>
<rect x="1180" y="16" width="100" height="40" fill="none" stroke="#444"/>
<text x="1210" y="42" font-family="Arial" font-size="18" fill="#111">Profil</text>
<rect x="1295" y="16" width="100" height="40" fill="none" stroke="#444"/>
<text x="1320" y="42" font-family="Arial" font-size="18" fill="#111">Logout</text>
<rect x="0" y="72" width="250" height="768" fill="#fafafa" stroke="#444"/>
<text x="30" y="110" font-family="Arial" font-size="22" fill="#111">Nawigacja</text>
<rect x="24" y="126" width="200" height="42" fill="none" stroke="#777"/>
<text x="40" y="150" font-family="Arial" font-size="18" fill="#111">Dashboard</text>
<rect x="24" y="184" width="200" height="42" fill="none" stroke="#777"/>
<text x="40" y="208" font-family="Arial" font-size="18" fill="#111">Przyjęcie</text>
<rect x="24" y="242" width="200" height="42" fill="none" stroke="#777"/>
<text x="40" y="266" font-family="Arial" font-size="18" fill="#111">Wydanie</text>
<rect x="24" y="300" width="200" height="42" fill="none" stroke="#777"/>
<text x="40" y="324" font-family="Arial" font-size="18" fill="#111">Płatności</text>
<rect x="24" y="358" width="200" height="42" fill="none" stroke="#777"/>
<text x="40" y="382" font-family="Arial" font-size="18" fill="#111">Przesyłki w punkcie</text>
<rect x="280" y="110" width="350" height="140" fill="none" stroke="#444"/>
<text x="298" y="144" font-family="Arial" font-size="22" fill="#111">Przyjęcia</text>
<text x="300" y="178" font-family="Arial" font-size="16" fill="#333">• Nowe przesyłki do nadania</text>
<rect x="655" y="110" width="350" height="140" fill="none" stroke="#444"/>
<text x="673" y="144" font-family="Arial" font-size="22" fill="#111">Wydania</text>
<text x="675" y="178" font-family="Arial" font-size="16" fill="#333">• Przesyłki gotowe do odbioru</text>
<rect x="1030" y="110" width="350" height="140" fill="none" stroke="#444"/>
<text x="1048" y="144" font-family="Arial" font-size="22" fill="#111">Płatności</text>
<text x="1050" y="178" font-family="Arial" font-size="16" fill="#333">• Pobrania / offline payment</text>
<rect x="280" y="280" width="520" height="500" fill="none" stroke="#444"/>
<text x="298" y="314" font-family="Arial" font-size="22" fill="#111">Operacja punktowa</text>
<text x="300" y="348" font-family="Arial" font-size="16" fill="#333">• Pole numeru / skan</text>
<text x="300" y="376" font-family="Arial" font-size="16" fill="#333">• Dane przesyłki</text>
<text x="300" y="404" font-family="Arial" font-size="16" fill="#333">• Przycisk potwierdzenia</text>
<rect x="830" y="280" width="550" height="500" fill="none" stroke="#444"/>
<text x="848" y="314" font-family="Arial" font-size="22" fill="#111">Lista przesyłek w punkcie</text>
<text x="850" y="348" font-family="Arial" font-size="16" fill="#333">• Status</text>
<text x="850" y="376" font-family="Arial" font-size="16" fill="#333">• Odbiorca</text>
<text x="850" y="404" font-family="Arial" font-size="16" fill="#333">• Termin odbioru</text>
<text x="850" y="432" font-family="Arial" font-size="16" fill="#333">• Filtrowanie</text>
<text x="40" y="880" font-family="Arial" font-size="16" fill="#666">Wireframe — uproszczony szkic ekranu</text>
</svg>