<svg xmlns="http://www.w3.org/2000/svg" width="1440" height="900" viewBox="0 0 1440 900">
<rect width="100%" height="100%" fill="#ffffff"/>
<rect x="0" y="0" width="1440" height="72" fill="#f2f2f2" stroke="#444"/>
<text x="40" y="45" font-family="Arial" font-size="28" fill="#111">Panel administratora</text>
<rect x="1180" y="16" width="100" height="40" fill="none" stroke="#444"/>
<text x="1210" y="42" font-family="Arial" font-size="18" fill="#111">Profil</text>
<rect x="1295" y="16" width="100" height="40" fill="none" stroke="#444"/>
<text x="1320" y="42" font-family="Arial" font-size="18" fill="#111">Logout</text>
<rect x="0" y="72" width="250" height="768" fill="#fafafa" stroke="#444"/>
<text x="30" y="110" font-family="Arial" font-size="22" fill="#111">Nawigacja</text>
<rect x="24" y="126" width="200" height="42" fill="none" stroke="#777"/>
<text x="40" y="150" font-family="Arial" font-size="18" fill="#111">Dashboard</text>
<rect x="24" y="184" width="200" height="42" fill="none" stroke="#777"/>
<text x="40" y="208" font-family="Arial" font-size="18" fill="#111">Użytkownicy</text>
<rect x="24" y="242" width="200" height="42" fill="none" stroke="#777"/>
<text x="40" y="266" font-family="Arial" font-size="18" fill="#111">Punkty</text>
<rect x="24" y="300" width="200" height="42" fill="none" stroke="#777"/>
<text x="40" y="324" font-family="Arial" font-size="18" fill="#111">Przesyłki</text>
<rect x="24" y="358" width="200" height="42" fill="none" stroke="#777"/>
<text x="40" y="382" font-family="Arial" font-size="18" fill="#111">Płatności</text>
<rect x="24" y="416" width="200" height="42" fill="none" stroke="#777"/>
<text x="40" y="440" font-family="Arial" font-size="18" fill="#111">Reklamacje</text>
<rect x="24" y="474" width="200" height="42" fill="none" stroke="#777"/>
<text x="40" y="498" font-family="Arial" font-size="18" fill="#111">Raporty</text>
<rect x="280" y="110" width="260" height="130" fill="none" stroke="#444"/>
<text x="298" y="144" font-family="Arial" font-size="22" fill="#111">KPI: przesyłki</text>
<text x="300" y="178" font-family="Arial" font-size="16" fill="#333">• Liczba wszystkich przesyłek</text>
<rect x="560" y="110" width="260" height="130" fill="none" stroke="#444"/>
<text x="578" y="144" font-family="Arial" font-size="22" fill="#111">KPI: płatności</text>
<text x="580" y="178" font-family="Arial" font-size="16" fill="#333">• Liczba transakcji</text>
<rect x="840" y="110" width="260" height="130" fill="none" stroke="#444"/>
<text x="858" y="144" font-family="Arial" font-size="22" fill="#111">KPI: reklamacje</text>
<text x="860" y="178" font-family="Arial" font-size="16" fill="#333">• Liczba aktywnych reklamacji</text>
<rect x="1120" y="110" width="260" height="130" fill="none" stroke="#444"/>
<text x="1138" y="144" font-family="Arial" font-size="22" fill="#111">KPI: punkty</text>
<text x="1140" y="178" font-family="Arial" font-size="16" fill="#333">• Aktywne punkty i paczkomaty</text>
<rect x="280" y="270" width="530" height="250" fill="none" stroke="#444"/>
<text x="298" y="304" font-family="Arial" font-size="22" fill="#111">Tabela / lista operacyjna</text>
<text x="300" y="338" font-family="Arial" font-size="16" fill="#333">• Ostatnie zgłoszenia</text>
<text x="300" y="366" font-family="Arial" font-size="16" fill="#333">• Ostatnie błędy</text>
<text x="300" y="394" font-family="Arial" font-size="16" fill="#333">• Nowe płatności offline</text>
<rect x="840" y="270" width="540" height="250" fill="none" stroke="#444"/>
<text x="858" y="304" font-family="Arial" font-size="22" fill="#111">Wykresy / raporty</text>
<text x="860" y="338" font-family="Arial" font-size="16" fill="#333">• Statusy przesyłek</text>
<text x="860" y="366" font-family="Arial" font-size="16" fill="#333">• Skuteczność doręczeń</text>
<text x="860" y="394" font-family="Arial" font-size="16" fill="#333">• Statystyki płatności</text>
<rect x="280" y="550" width="1100" height="230" fill="none" stroke="#444"/>
<text x="298" y="584" font-family="Arial" font-size="22" fill="#111">Szybkie akcje administracyjne</text>
<text x="300" y="618" font-family="Arial" font-size="16" fill="#333">• Zarządzaj użytkownikami</text>
<text x="300" y="646" font-family="Arial" font-size="16" fill="#333">• Zarządzaj punktami</text>
<text x="300" y="674" font-family="Arial" font-size="16" fill="#333">• Przejdź do reklamacji</text>
<text x="300" y="702" font-family="Arial" font-size="16" fill="#333">• Przejdź do raportów</text>
<text x="40" y="880" font-family="Arial" font-size="16" fill="#666">Wireframe — uproszczony szkic ekranu</text>
</svg>